<svg xmlns="http://www.w3.org/2000/svg" viewBox="0 0 445.51 455.86"><g><g style="mix-blend-mode:color"><path d="M401.42,78.55C349.7,82.5,288.86,128.71,261,155.7a25.31,25.31,0,0,0-2.65-2.93,65.41,65.41,0,0,0,17.06-22.94c5.18-12.15,6.8-25.68,6.14-38.9-.24-4.92-7.55-4.94-7.3,0,.58,11.79-.54,24.13-5.15,35A59.69,59.69,0,0,1,252.8,147.7c2.62-13.6,6.23-27.75,7.61-30.26,7.28-13.37,5-25.72-4.45-37-7.66-9.11-11.43-15.06-3.81-20,10.7-7-.9-26.05-3.72-26.05s9,26-16.38,25.61c-1-.48-8.79,2.39-8.79,2.39s-7.84-2.87-8.8-2.39C189,60.3,199.8,34.33,197,34.33s-13.31,19.08-2.61,26.05c7.62,5,3.85,10.93-3.81,20-9.5,11.3-11.73,23.65-4.44,37,1.37,2.51,5,16.66,7.6,30.26A59.66,59.66,0,0,1,177.43,126c-4.62-10.9-5.74-23.24-5.15-35,.24-4.94-7.06-4.92-7.31,0-.66,13.22,1,26.75,6.15,38.9a65.51,65.51,0,0,0,17,22.94,25.22,25.22,0,0,0-2.64,2.93c-27.87-27-88.71-73.2-140.44-77.15-22.59-1.72.16,59.3,8.52,72.8,9.41,15.19,50.93,21.25,87.82,23.5-29.74,2.41-62.3,11-75.5,37.6,0,0-7.25,10.15,2.1,8.62,9-1.46,18.09,1.45,27.09,2.2s18.17,1.08,27.27,1c8.32-.12,17.16-.07,25.16-2.82.74-.25,1.46-.56,2.19-.87a162.12,162.12,0,0,0,17.79-5.29c-.29.34-.57.69-.84,1-5.42,6.75-11.8,12.92-16,20.67-4.62,8.59-5,18.32-6.54,27.83-1.44,9-3.63,18-8.16,25.89-4.36,7.57-10.94,13.81-19.18,16.13-4.54,1.28-2.61,8.69,1.94,7.41,16.25-4.58,26-20.43,30.24-36.63,2.35-9,2.72-18.38,4.71-27.48s7.25-15.58,13-22.29c3.14-3.64,6-7.57,9.28-11.1,2.8-3,6.08-5.61,10.05-6.06A22.38,22.38,0,0,1,186,215c-12.22,16.92-17.43,35.37-18.45,57.49.53,6.88,1,14.53,1.72,22.15,2.66,26.78,9.17,52.41,24.63,74.27,10.67,15.11,26.24,26.81,27.89,47.72a7.15,7.15,0,0,0,1.44,3,7.15,7.15,0,0,0,1.44-3c1.65-20.91,17.21-32.61,27.89-47.72,15.45-21.86,22-47.49,24.63-74.27.75-7.62,1.19-15.27,1.71-22.15-1-22.12-6.23-40.57-18.44-57.49a22.38,22.38,0,0,1-.07-4.33c4,.45,7.25,3,10.05,6.06,3.26,3.53,6.14,7.46,9.28,11.1,5.78,6.71,11.05,13.26,13,22.29s2.37,18.45,4.72,27.48c4.21,16.2,14,32.05,30.23,36.63,4.56,1.28,6.48-6.13,1.95-7.41-8.25-2.32-14.82-8.56-19.18-16.13-4.53-7.86-6.73-16.91-8.16-25.89-1.52-9.51-1.93-19.24-6.55-27.83-4.17-7.75-10.55-13.92-16-20.67l-.84-1a161.47,161.47,0,0,0,17.79,5.29c.72.31,1.45.62,2.18.87,8,2.75,16.84,2.7,25.16,2.82q13.65.18,27.27-1c9-.75,18.14-3.66,27.09-2.2,9.35,1.53,2.11-8.62,2.11-8.62-13.21-26.62-45.77-35.19-75.5-37.6,36.88-2.25,78.4-8.31,87.81-23.5C401.26,137.85,424,76.83,401.42,78.55ZM223,145.79h.59c16.08,0,29.11,13.69,29.11,30.58S239.63,207,223.55,207H223c-16.08,0-29.11-13.69-29.11-30.59S206.88,145.79,223,145.79Zm28.5,80.5c-.82,2.4-3.42,2.47-5.46,2.5-7.58.13-15.16.05-22.74,0h0c-7.58,0-15.16.09-22.73,0-2.05,0-4.64-.1-5.47-2.5s1.32-4.07,2.65-5.71c4.14-5.09,8.61-8.57,15.74-5.86a26.83,26.83,0,0,0,19.63,0c7.14-2.71,11.6.77,15.75,5.86C250.15,222.22,252.3,223.87,251.46,226.29Zm-23,156.2a6.34,6.34,0,0,1-10.37,0c-3.9-3.83-11.52-8-9.6-12.39,2.33-5.33,10.43-.33,14.57-1.9h.43c4.14,1.57,12.25-3.43,14.57,1.9C240,374.49,232.34,378.66,228.44,382.49Zm28.42-46.66c-1.62,5.37-4.38,8.53-10,9.4-7.86,1.21-15.71.67-23.56,1.07-7.85-.4-15.7.14-23.56-1.07-5.67-.87-8.42-4-10-9.4-1.74-5.79-.56-8.27,5.69-7.81,9.29.68,18.6,1.17,27.92,1.38,9.31-.21,18.62-.7,27.92-1.38C257.42,327.56,258.61,330,256.86,335.83Zm-1.37-30c-10.73,1-21.43,2.59-32.23,1.73-10.81.86-21.51-.74-32.23-1.73-7.14-.67-11-7.25-8.87-14.3.83-2.73,2.47-3.32,4.83-3a308.43,308.43,0,0,0,36.27,2.08,308.43,308.43,0,0,0,36.27-2.08c2.36-.28,4,.31,4.82,3C266.49,298.61,262.62,305.19,255.49,305.86ZM264,259.67c1,6.57-3.7,7.28-8,7.59-10.86.78-21.77,1.26-32.66,1.88h-.17c-10.89-.62-21.79-1.1-32.66-1.88-4.31-.31-9-1-8-7.59.82-5.77,1.44-11.55,9.65-10.34a209,209,0,0,0,62.24,0C262.58,248.12,263.2,253.9,264,259.67Z" fill="#fafafa"/><path d="M232.92,60.32l-.15,0h-.2a3.14,3.14,0,0,0-.51.05Z" fill="#fff"/><path d="M68,221.48a11.5,11.5,0,0,1-1.2.13l.32,0a11.35,11.35,0,0,0,1.73-.15,32.59,32.59,0,0,1,5-.4A33.37,33.37,0,0,0,68,221.48Z" fill="#fff"/><polygon points="211.41 180.16 200.32 168.81 215.66 166.46 222.81 151.25 223.26 150.09 223.7 151.25 230.85 166.46 246.19 168.81 235.11 180.16 237.79 196.59 223.7 188.81 223.26 188.59 222.81 188.81 208.72 196.59 211.41 180.16" fill="#fff"/><polygon points="211.98 192.07 222.81 186.09 223.26 185.87 223.7 186.09 234.53 192.07 232.47 179.4 241.23 170.43 229.12 168.58 223.7 157.05 223.26 155.89 222.81 157.05 217.39 168.58 205.28 170.43 214.05 179.4 211.98 192.07" fill="#e6007e"/></g><g style="mix-blend-mode:overlay"><path d="M401.42,80.43C349.7,84.37,288.86,130.58,261,157.58a23.77,23.77,0,0,0-2.65-2.93,65.5,65.5,0,0,0,17.06-22.94c5.18-12.15,6.8-25.68,6.14-38.91-.24-4.92-7.55-4.93-7.3,0,.58,11.8-.54,24.14-5.15,35a59.69,59.69,0,0,1-16.29,21.74c2.62-13.59,6.23-27.75,7.61-30.26,7.28-13.37,5-25.72-4.45-37-7.66-9.12-11.43-15.06-3.81-20,10.7-7-.9-26-3.72-26s9,26-16.38,25.6c-1-.48-8.79,2.39-8.79,2.39s-7.84-2.87-8.8-2.39C189,62.18,199.8,36.21,197,36.21s-13.31,19.07-2.61,26.05c7.62,5,3.85,10.92-3.81,20-9.5,11.29-11.73,23.64-4.44,37,1.37,2.51,5,16.67,7.6,30.26a59.66,59.66,0,0,1-16.28-21.74c-4.62-10.89-5.74-23.23-5.15-35,.24-4.93-7.06-4.92-7.31,0-.66,13.23,1,26.76,6.15,38.91a65.6,65.6,0,0,0,17,22.94,23.69,23.69,0,0,0-2.64,2.93c-27.87-27-88.71-73.21-140.44-77.15-22.59-1.73.16,59.3,8.52,72.79,9.41,15.2,50.93,21.25,87.82,23.51-29.74,2.4-62.3,11-75.5,37.6,0,0-7.25,10.15,2.1,8.62,9-1.47,18.09,1.44,27.09,2.2s18.17,1.08,27.27.95c8.32-.11,17.16-.07,25.16-2.82.74-.25,1.46-.56,2.19-.86a162.11,162.11,0,0,0,17.79-5.3c-.29.35-.57.69-.84,1-5.42,6.75-11.8,12.92-16,20.66-4.62,8.6-5,18.32-6.54,27.83-1.44,9-3.63,18-8.16,25.89-4.36,7.57-10.94,13.81-19.18,16.14-4.54,1.27-2.61,8.68,1.94,7.4,16.25-4.58,26-20.43,30.24-36.62,2.35-9,2.72-18.39,4.71-27.48s7.25-15.59,13-22.29c3.14-3.65,6-7.58,9.28-11.1,2.8-3,6.08-5.62,10.05-6.07a22.37,22.37,0,0,1-.06,4.33c-12.22,16.93-17.43,35.37-18.45,57.5.53,6.87,1,14.53,1.72,22.15,2.66,26.78,9.17,52.4,24.63,74.27,10.67,15.11,26.24,26.81,27.89,47.72a7.08,7.08,0,0,0,1.44,3,7.08,7.08,0,0,0,1.44-3c1.65-20.91,17.21-32.61,27.89-47.72,15.45-21.87,22-47.49,24.63-74.27.75-7.62,1.19-15.28,1.71-22.15-1-22.13-6.23-40.57-18.44-57.5a22.37,22.37,0,0,1-.07-4.33c4,.45,7.25,3,10.05,6.07,3.26,3.52,6.14,7.45,9.28,11.1,5.78,6.7,11.05,13.26,13,22.29s2.37,18.44,4.72,27.48c4.21,16.19,14,32,30.23,36.62,4.56,1.28,6.48-6.13,1.95-7.4-8.25-2.33-14.82-8.57-19.18-16.14-4.53-7.86-6.73-16.9-8.16-25.89-1.52-9.51-1.93-19.23-6.55-27.83-4.17-7.74-10.55-13.91-16-20.66l-.84-1a161.46,161.46,0,0,0,17.79,5.3c.72.3,1.45.61,2.18.86,8,2.75,16.84,2.71,25.16,2.82q13.65.19,27.27-.95c9-.76,18.14-3.67,27.09-2.2,9.35,1.53,2.11-8.62,2.11-8.62-13.21-26.63-45.77-35.2-75.5-37.6,36.88-2.26,78.4-8.31,87.81-23.51C401.26,139.73,424,78.7,401.42,80.43ZM223,147.66l.3,0,.29,0c16.08,0,29.11,13.7,29.11,30.59s-13,30.59-29.11,30.59l-.29,0-.3,0c-16.08,0-29.11-13.7-29.11-30.59S206.88,147.66,223,147.66Zm28.5,80.5c-.82,2.41-3.42,2.47-5.46,2.51-7.58.13-15.16.05-22.74,0h0c-7.58,0-15.16.1-22.73,0-2.05,0-4.64-.1-5.47-2.51s1.32-4.07,2.65-5.7c4.14-5.09,8.61-8.58,15.74-5.86a26.83,26.83,0,0,0,19.63,0c7.14-2.72,11.6.77,15.75,5.86C250.15,224.09,252.3,225.74,251.46,228.16Zm-23,156.21a6.34,6.34,0,0,1-10.37,0c-3.9-3.84-11.52-8-9.6-12.4,2.33-5.32,10.43-.33,14.57-1.89h.43c4.14,1.56,12.25-3.43,14.57,1.89C240,376.37,232.34,380.53,228.44,384.37Zm28.42-46.67c-1.62,5.38-4.38,8.53-10,9.4-7.86,1.22-15.71.67-23.56,1.07-7.85-.4-15.7.15-23.56-1.07-5.67-.87-8.42-4-10-9.4-1.74-5.78-.56-8.27,5.69-7.81,9.29.69,18.6,1.17,27.92,1.38,9.31-.21,18.62-.69,27.92-1.38C257.42,329.43,258.61,331.92,256.86,337.7Zm-1.37-30c-10.73,1-21.43,2.6-32.23,1.73-10.81.87-21.51-.73-32.23-1.73-7.14-.67-11-7.25-8.87-14.29.83-2.73,2.47-3.33,4.83-3.05a304.18,304.18,0,0,0,36.27,2.08,304.18,304.18,0,0,0,36.27-2.08c2.36-.28,4,.32,4.82,3.05C266.49,300.48,262.62,307.06,255.49,307.73ZM264,261.55c1,6.56-3.7,7.27-8,7.58-10.86.79-21.77,1.27-32.66,1.88h-.17c-10.89-.61-21.79-1.09-32.66-1.88-4.31-.31-9-1-8-7.58.82-5.78,1.44-11.56,9.65-10.35a209,209,0,0,0,62.24,0C262.58,250,263.2,255.77,264,261.55Z" fill="#fafafa"/><path d="M232.92,62.2l-.15,0h-.2l-.51.05C232.36,62.22,232.63,62.2,232.92,62.2Z" fill="#fff"/><path d="M68,223.35a11.5,11.5,0,0,1-1.2.13c.11,0,.21,0,.32,0a10.29,10.29,0,0,0,1.73-.16,31.4,31.4,0,0,1,5-.39A32.42,32.42,0,0,0,68,223.35Z" fill="#fff"/><polygon points="211.41 182.03 200.32 170.68 215.66 168.34 222.81 153.13 223.26 151.97 223.7 153.13 230.85 168.34 246.19 170.68 235.11 182.03 237.79 198.47 223.7 190.69 223.26 190.47 222.81 190.69 208.72 198.47 211.41 182.03" fill="#fff"/><polygon points="211.98 193.95 222.81 187.97 223.26 187.75 223.7 187.97 234.53 193.95 232.47 181.28 241.23 172.3 229.12 170.45 223.7 158.92 223.26 157.76 222.81 158.92 217.39 170.45 205.28 172.3 214.05 181.28 211.98 193.95" fill="#e6007e"/></g><g opacity="0.67"><path d="M400.42,79.91C348.7,83.85,287.86,130.07,260,157.06a24.51,24.51,0,0,0-2.65-2.93,65.41,65.41,0,0,0,17.06-22.94c5.18-12.15,6.8-25.68,6.14-38.9-.24-4.93-7.55-4.94-7.3,0,.58,11.79-.54,24.13-5.15,35a59.77,59.77,0,0,1-16.29,21.74c2.62-13.6,6.23-27.75,7.61-30.27,7.28-13.36,5-25.72-4.45-37-7.66-9.11-11.43-15.06-3.81-20,10.7-7-.9-26.05-3.72-26.05s9,26-16.38,25.6c-1-.47-8.79,2.4-8.79,2.4s-7.84-2.87-8.8-2.4C188,61.66,198.8,35.69,196,35.69s-13.31,19.07-2.61,26.05c7.62,5,3.85,10.93-3.81,20-9.5,11.29-11.73,23.65-4.44,37,1.37,2.52,5,16.67,7.6,30.27a59.75,59.75,0,0,1-16.28-21.74c-4.62-10.9-5.74-23.24-5.15-35,.24-4.94-7.06-4.93-7.31,0-.66,13.22,1,26.75,6.15,38.9a65.51,65.51,0,0,0,17,22.94,24.43,24.43,0,0,0-2.64,2.93c-27.87-27-88.71-73.21-140.44-77.15-22.59-1.72.16,59.3,8.52,72.8C62,167.9,103.54,174,140.43,176.21c-29.74,2.41-62.3,11-75.5,37.6,0,0-7.25,10.15,2.1,8.62,9-1.47,18.09,1.45,27.09,2.2s18.17,1.08,27.27,1c8.32-.11,17.16-.07,25.16-2.81.74-.26,1.46-.57,2.19-.87a164.34,164.34,0,0,0,17.79-5.29c-.29.34-.57.69-.84,1-5.42,6.75-11.8,12.92-16,20.67-4.62,8.59-5,18.31-6.54,27.82-1.44,9-3.63,18-8.16,25.9-4.36,7.56-10.94,13.81-19.18,16.13-4.54,1.28-2.61,8.69,1.94,7.4C134,311,143.8,295.13,148,278.94c2.35-9,2.72-18.39,4.71-27.48s7.25-15.58,13-22.29c3.14-3.65,6-7.57,9.28-11.1,2.8-3,6.08-5.61,10.05-6.06a22.27,22.27,0,0,1-.06,4.32c-12.22,16.93-17.43,35.38-18.45,57.5.53,6.88,1,14.53,1.72,22.15,2.66,26.78,9.17,52.41,24.63,74.27,10.67,15.11,26.24,26.81,27.89,47.72a7.15,7.15,0,0,0,1.44,3,7.15,7.15,0,0,0,1.44-3c1.65-20.91,17.21-32.61,27.89-47.72,15.45-21.86,22-47.49,24.63-74.27.75-7.62,1.19-15.27,1.71-22.15-1-22.12-6.23-40.57-18.44-57.5a22.27,22.27,0,0,1-.07-4.32c4,.45,7.25,3,10.05,6.06,3.26,3.53,6.14,7.45,9.28,11.1,5.78,6.71,11.05,13.26,13,22.29s2.37,18.45,4.72,27.48c4.21,16.19,14,32.05,30.23,36.62,4.56,1.29,6.48-6.12,1.95-7.4-8.25-2.32-14.82-8.57-19.18-16.13-4.53-7.86-6.73-16.91-8.16-25.9-1.52-9.51-1.93-19.23-6.55-27.82-4.17-7.75-10.55-13.92-16-20.67l-.84-1a163.67,163.67,0,0,0,17.79,5.29c.72.3,1.45.61,2.18.87,8,2.74,16.84,2.7,25.16,2.81q13.65.19,27.27-1c9-.75,18.14-3.67,27.09-2.2,9.35,1.53,2.11-8.62,2.11-8.62-13.21-26.62-45.77-35.19-75.5-37.6,36.88-2.26,78.4-8.31,87.81-23.5C400.26,139.21,423,78.19,400.42,79.91ZM222,147.14l.3,0,.29,0c16.08,0,29.11,13.7,29.11,30.59s-13,30.59-29.11,30.59l-.29,0-.3,0c-16.08,0-29.11-13.69-29.11-30.59S205.88,147.14,222,147.14Zm28.5,80.5c-.82,2.41-3.42,2.47-5.46,2.51-7.58.13-15.16,0-22.74,0h0c-7.58,0-15.16.09-22.73,0-2.05,0-4.64-.1-5.47-2.51s1.32-4.06,2.65-5.7c4.14-5.09,8.61-8.58,15.74-5.86a26.83,26.83,0,0,0,19.63,0c7.14-2.72,11.6.77,15.75,5.86C249.15,223.58,251.3,225.22,250.46,227.64Zm-23,156.21a6.34,6.34,0,0,1-10.37,0c-3.9-3.83-11.52-8-9.6-12.39,2.33-5.33,10.43-.34,14.57-1.9h.43c4.14,1.56,12.25-3.43,14.57,1.9C239,375.85,231.34,380,227.44,383.85Zm28.42-46.66c-1.62,5.37-4.38,8.52-10,9.4-7.86,1.21-15.71.67-23.56,1.06-7.85-.39-15.7.15-23.56-1.06-5.67-.88-8.42-4-10-9.4-1.74-5.79-.56-8.27,5.69-7.81,9.29.68,18.6,1.17,27.92,1.38,9.31-.21,18.62-.7,27.92-1.38C256.42,328.92,257.61,331.4,255.86,337.19Zm-1.37-30c-10.73,1-21.43,2.6-32.23,1.74-10.81.86-21.51-.74-32.23-1.74-7.14-.66-11-7.24-8.87-14.29.83-2.73,2.47-3.32,4.83-3A306.27,306.27,0,0,0,222.26,292a306.27,306.27,0,0,0,36.27-2.07c2.36-.28,4,.31,4.82,3C265.49,300,261.62,306.55,254.49,307.21ZM263,261c1,6.57-3.7,7.28-8,7.58-10.86.79-21.77,1.27-32.66,1.88h-.17c-10.89-.61-21.79-1.09-32.66-1.88-4.31-.3-9-1-8-7.58.82-5.78,1.44-11.55,9.65-10.34a209,209,0,0,0,62.24,0C261.58,249.48,262.2,255.25,263,261Z" fill="#fafafa"/><path d="M231.92,61.68l-.15,0-.2,0a4.08,4.08,0,0,0-.51.06Z" fill="#fff"/><path d="M67,222.83a11.69,11.69,0,0,1-1.2.14l.32,0a10.29,10.29,0,0,0,1.73-.16,32.63,32.63,0,0,1,5-.39A33.36,33.36,0,0,0,67,222.83Z" fill="#fff"/><polygon points="210.41 181.52 199.32 170.16 214.66 167.82 221.81 152.61 222.26 151.45 222.7 152.61 229.85 167.82 245.19 170.16 234.11 181.52 236.79 197.95 222.7 190.17 222.26 189.95 221.81 190.17 207.72 197.95 210.41 181.52" fill="#fff"/><polygon points="210.98 193.43 221.81 187.45 222.26 187.23 222.7 187.45 233.53 193.43 231.47 180.76 240.23 171.78 228.12 169.94 222.7 158.41 222.26 157.24 221.81 158.41 216.39 169.94 204.28 171.78 213.05 180.76 210.98 193.43" fill="#e6007e"/></g></g></svg>